<svg xmlns="http://www.w3.org/2000/svg" viewBox="0 0 3940 718"><g transform="translate(0.000000,808.000000) scale(0.100000,-0.100000)" fill="#FFFFFF" fill-rule="evenodd"><path d="M3440 7219 c-140 -10 -293 -28 -355 -39 -27 -6 -99 -19 -160 -31
-277 -51 -644 -182 -925 -327 -681 -353 -1207 -886 -1550 -1571 -147 -294
-275 -681 -334 -1013 -45 -247 -51 -323 -51 -603 0 -284 8 -379 51 -620 105
-577 354 -1115 740 -1600 114 -142 399 -427 539 -539 475 -379 1052 -642 1626
-740 230 -40 349 -50 594 -50 455 0 830 68 1261 230 792 296 1501 896 1894
1604 249 448 385 875 441 1385 16 147 16 501 1 650 -90 852 -459 1625 -1058
2217 -169 166 -272 253 -446 375 -390 273 -768 450 -1208 564 -133 35 -219 52
-395 79 -91 14 -434 40 -505 38 -30 0 -102 -4 -160 -9z m458 -179 c283 -29
537 -81 777 -158 179 -58 504 -204 650 -292 28 -17 57 -33 65 -37 38 -17 284
-187 365 -253 338 -275 605 -585 834 -968 233 -390 398 -886 452 -1357 20
-168 17 -573 -4 -725 -97 -683 -347 -1247 -785 -1770 -92 -110 -343 -358 -452
-446 -286 -231 -633 -427 -997 -562 -646 -242 -1400 -277 -2058 -97 -519 142
-958 381 -1370 746 -717 634 -1145 1564 -1145 2489 0 169 18 401 40 525 6 33
15 87 21 120 11 65 57 251 88 355 145 488 442 1011 771 1355 279 292 495 463
826 653 276 159 683 307 1024 373 274 52 662 73 898 49z"/><path d="M3420 6839 c-284 -30 -388 -48 -605 -104 -339 -88 -673 -240 -985
-448 -211 -141 -518 -425 -680 -628 -276 -346 -490 -762 -608 -1179 -17 -58
-32 -116 -35 -130 -2 -14 -11 -59 -20 -100 -73 -366 -83 -697 -33 -1063 16
-113 51 -294 65 -337 5 -14 19 -59 31 -100 128 -436 381 -873 712 -1231 280
-303 590 -534 953 -714 273 -134 478 -204 773 -264 245 -50 419 -64 712 -58
291 6 406 20 659 78 505 118 991 365 1396 713 101 86 295 279 295 292 0 25
-333 64 -545 64 -663 -1 -1302 -239 -1671 -621 -39 -41 -88 -100 -108 -131
-40 -64 -60 -78 -106 -78 -44 0 -65 14 -101 66 -127 186 -362 372 -648 514
-341 170 -713 249 -1166 250 -176 0 -409 -19 -435 -35 -18 -11 -43 11 -100 88
-61 81 -70 104 -48 112 49 17 284 35 449 35 207 0 362 -14 559 -50 495 -91
926 -294 1267 -598 52 -47 96 -82 99 -79 9 9 -84 147 -150 221 -331 375 -900
670 -1511 785 -321 60 -670 77 -878 42 -32 -6 -64 -8 -72 -5 -16 7 -130 232
-176 349 -164 420 -239 881 -210 1289 38 525 166 959 410 1389 11 20 29 52 39
70 83 145 247 365 397 531 231 256 580 519 888 670 201 98 360 160 557 216 25
7 56 16 70 21 47 16 249 56 355 70 122 17 578 23 705 9 405 -42 744 -140 1115
-321 87 -43 91 -45 245 -138 501 -303 942 -792 1200 -1333 164 -343 267 -694
301 -1024 17 -172 7 -598 -19 -759 -36 -217 -94 -431 -176 -647 -51 -134 -181
-394 -201 -402 -7 -2 -31 0 -52 7 -25 7 -135 11 -323 11 -304 0 -397 -9 -650
-60 -379 -76 -805 -251 -1093 -449 -219 -150 -368 -291 -486 -459 -63 -90 -54
-116 14 -45 102 105 387 306 552 388 144 72 372 156 533 196 189 47 298 66
556 95 181 20 444 11 649 -22 91 -15 98 -20 78 -64 -9 -18 -13 -37 -9 -41 11
-12 63 54 204 262 186 273 334 605 406 909 76 322 90 445 90 776 0 249 -3 291
-27 440 -114 706 -416 1300 -916 1800 -265 265 -528 458 -829 608 -323 161
-594 251 -937 311 -33 5 -73 13 -90 16 -57 10 -410 35 -485 34 -41 -1 -109 -5
-150 -10z"/><path d="M3607 6603 c-3 -5 -12 -51 -21 -103 -40 -233 -43 -240 -141 -335 -56
-55 -77 -83 -94 -128 -26 -72 -26 -92 -1 -168 11 -33 18 -64 15 -69 -3 -5 -22
-12 -43 -16 -49 -8 -108 -47 -132 -87 -45 -72 -8 -177 75 -216 l45 -21 -58
-58 c-73 -74 -97 -136 -89 -228 7 -75 13 -86 111 -232 42 -62 76 -116 76 -122
0 -24 -24 -17 -82 24 -78 54 -171 100 -263 128 -57 18 -93 22 -200 22 -117 0
-137 -3 -200 -28 -131 -50 -220 -127 -264 -227 -31 -69 -35 -117 -16 -191 15
-62 15 -69 0 -99 -23 -43 -16 -125 13 -166 31 -43 105 -77 156 -70 78 11 131
72 131 151 0 42 -6 60 -27 89 -31 40 -35 65 -14 105 38 73 124 108 244 99 85
-5 142 -27 232 -88 125 -85 239 -243 276 -383 15 -56 7 -76 -31 -76 -30 0 -85
-38 -112 -79 -45 -67 -21 -159 52 -202 19 -12 35 -27 35 -33 0 -21 -55 -90
-98 -124 -85 -67 -186 -96 -289 -81 -78 11 -130 36 -171 84 -39 43 -48 75 -33
116 39 111 -12 210 -142 275 -43 22 -53 24 -79 13 -91 -38 -158 -130 -158
-218 0 -50 26 -103 59 -121 39 -20 22 -99 -31 -146 -72 -66 -177 -77 -266 -29
-54 29 -92 76 -92 113 0 38 -12 52 -72 84 -77 41 -138 111 -193 223 -55 114
-79 219 -73 328 7 130 48 181 140 175 38 -3 44 0 57 27 21 42 18 126 -5 166
-27 46 -82 86 -137 101 -44 11 -54 10 -112 -10 -83 -29 -90 -28 -105 11 -23
57 -59 95 -114 121 -66 31 -117 33 -189 6 -87 -33 -137 -103 -137 -192 1 -87
43 -142 152 -197 54 -27 78 -73 78 -152 0 -168 76 -370 247 -654 246 -411 360
-653 403 -862 7 -35 18 -67 24 -72 7 -6 58 2 136 20 344 80 665 132 1040 171
167 17 778 17 980 0 320 -27 720 -92 1020 -167 100 -24 147 -32 154 -25 6 6
16 41 22 79 33 196 168 493 344 756 188 280 274 460 315 657 8 40 15 92 15
116 0 67 22 98 92 132 76 37 105 63 129 115 63 135 -54 295 -216 295 -91 0
-179 -55 -215 -136 -11 -24 -27 -44 -34 -44 -8 0 -35 9 -61 20 -84 36 -163 23
-228 -39 -50 -48 -73 -121 -57 -183 16 -59 25 -67 68 -61 153 18 185 -237 61
-492 -47 -97 -130 -193 -196 -226 -71 -35 -83 -48 -83 -85 0 -61 -83 -132
-172 -148 -81 -15 -175 34 -209 108 -26 57 -24 70 16 110 40 41 49 69 43 136
-6 60 -42 119 -100 160 -60 44 -79 46 -140 15 -100 -50 -148 -117 -148 -205 0
-28 5 -60 11 -71 5 -11 7 -29 4 -40 -12 -36 -76 -99 -129 -127 -45 -23 -63
-27 -146 -27 -86 0 -101 3 -160 31 -94 45 -182 139 -167 178 4 9 17 20 29 25
50 19 97 104 85 152 -15 55 -48 91 -108 118 l-60 26 6 43 c19 130 151 311 298
410 72 48 146 73 234 79 91 6 157 -10 201 -51 49 -44 67 -111 36 -137 -46 -38
-58 -131 -24 -186 23 -38 86 -73 131 -73 50 0 114 43 138 93 25 53 26 68 4
130 -16 44 -16 50 0 95 38 106 10 224 -74 316 -53 58 -103 91 -196 127 -79 31
-306 34 -398 5 -78 -24 -223 -96 -293 -146 -31 -22 -58 -37 -60 -35 -15 14 18
83 79 165 100 135 113 161 113 245 1 59 -3 77 -27 117 -15 26 -50 67 -77 90
-54 47 -63 68 -27 68 56 0 127 75 127 136 0 39 -22 94 -47 115 -28 25 -80 49
-106 49 -41 0 -47 17 -26 78 41 120 15 203 -100 317 -91 89 -99 109 -132 299
-22 127 -25 136 -39 136 -5 0 -11 -3 -13 -7z m81 -3123 c96 -59 96 -201 0
-260 -44 -27 -122 -27 -166 0 -103 63 -91 205 23 268 33 18 106 14 143 -8z
m-932 -154 c72 -72 24 -176 -82 -176 -28 0 -44 8 -71 35 -32 32 -35 40 -30 73
9 52 64 102 113 102 28 0 44 -8 70 -34z m1826 23 c27 -14 60 -92 52 -123 -3
-13 -19 -37 -35 -52 -24 -23 -39 -29 -75 -29 -40 0 -50 5 -80 37 -47 52 -47
97 0 144 28 28 42 34 76 34 23 0 50 -5 62 -11z m-2318 -160 c14 -17 26 -37 26
-45 0 -24 -47 -64 -75 -64 -30 0 -75 41 -75 68 0 11 9 31 21 46 29 37 70 35
103 -5z m2771 6 c14 -13 25 -33 25 -45 0 -11 -11 -32 -25 -45 -13 -14 -33 -25
-45 -25 -11 0 -32 11 -45 25 -14 13 -25 34 -25 45 0 12 11 32 25 45 31 32 59
32 90 0z"/><path d="M3385 2834 c-377 -21 -883 -89 -1223 -164 -147 -33 -206 -54 -200
-71 2 -6 58 -30 123 -54 177 -62 245 -90 401 -167 l142 -69 58 10 c516 90
1251 94 1774 11 162 -26 143 -29 285 43 163 82 303 142 425 182 60 20 95 37
95 46 0 20 -103 52 -305 93 -328 66 -543 98 -835 121 -189 16 -607 26 -740 19z"/></g><g transform="translate(0.000000,808.000000) scale(0.100000,-0.100000)" fill="#DE2026" fill-rule="evenodd"><path d="M3520 7254 c-117 -22 -89 -30 100 -29 160 0 193 4 153 19 -21 8 -220
16 -253 10z"/><path d="M3335 7231 c-9 -16 14 -23 48 -15 32 7 32 7 7 15 -36 10 -48 10 -55
0z"/><path d="M3855 7225 c21 -17 70 -17 70 0 0 6 -20 11 -45 13 -42 2 -44 1 -25
-13z"/><path d="M3233 7223 c-22 -8 -14 -23 11 -23 13 0 29 7 36 15 10 13 9 15 -11
14 -13 0 -30 -3 -36 -6z"/><path d="M3970 7221 c0 -11 59 -25 68 -16 3 3 0 10 -8 15 -19 12 -60 13 -60 1z"/><path d="M3075 7195 c-26 -11 -27 -13 -8 -14 27 -1 53 9 53 20 0 12 -9 11 -45
-6z"/><path d="M4140 7202 c0 -11 24 -22 48 -22 21 0 5 15 -25 25 -13 3 -23 2 -23
-3z"/><path d="M4395 7145 c37 -17 95 -21 78 -4 -6 6 -33 13 -60 15 l-48 4 30 -15z"/><path d="M3310 7028 c-21 -10 -22 -12 -7 -15 25 -6 67 5 67 17 0 13 -28 12
-60 -2z"/><path d="M3866 7031 c-7 -10 27 -21 67 -21 37 0 34 16 -4 24 -43 8 -57 8 -63
-3z"/><path d="M3150 7008 c-16 -6 -20 -12 -12 -15 18 -7 62 5 62 17 0 12 -18 12
-50 -2z"/><path d="M4060 6995 c8 -9 24 -15 39 -13 40 5 31 23 -13 26 -36 3 -38 2 -26
-13z"/><path d="M3468 6873 c-32 -2 -58 -8 -58 -13 0 -6 6 -10 13 -10 6 -1 114 -2
239 -4 211 -2 265 3 186 18 -41 8 -304 14 -380 9z"/><path d="M3335 6850 c-11 -18 26 -23 43 -6 15 15 14 16 -10 16 -15 0 -30 -5
-33 -10z"/><path d="M3230 6841 c0 -16 19 -23 40 -16 30 10 24 25 -10 25 -16 0 -30 -4
-30 -9z"/><path d="M3100 6820 c-8 -5 -12 -12 -8 -15 9 -9 48 4 48 16 0 12 -21 11 -40
-1z"/><path d="M4110 6821 c0 -10 25 -21 48 -21 15 1 14 3 -2 15 -22 17 -46 20 -46
6z"/><path d="M2890 6788 c-19 -5 -49 -13 -66 -19 -17 -5 -37 -9 -46 -9 -9 0 -21
-7 -28 -15 -10 -13 -9 -15 11 -15 30 0 171 38 182 49 14 14 -16 18 -53 9z"/><path d="M3555 6760 c-3 -5 0 -13 8 -15 24 -10 202 -1 202 10 0 14 -201 19
-210 5z"/><path d="M3265 6753 c-38 -9 -40 -23 -3 -23 44 0 70 9 62 21 -5 9 -25 10 -59
2z"/><path d="M3910 6751 c0 -12 29 -23 41 -15 5 3 7 10 4 15 -8 12 -45 12 -45 0z"/><path d="M3125 6729 c-12 -19 2 -21 32 -5 l28 15 -27 1 c-15 0 -30 -5 -33 -11z"/><path d="M4070 6731 c0 -12 48 -27 57 -17 9 8 2 13 -30 21 -17 5 -27 3 -27 -4z"/><path d="M4202 6709 c5 -17 48 -25 48 -10 0 6 -4 11 -9 11 -5 0 -17 3 -27 7
-12 4 -15 2 -12 -8z"/><path d="M2198 6528 c-21 -11 -38 -24 -38 -29 0 -14 6 -12 58 21 52 33 38 38
-20 8z"/><path d="M5010 6540 c0 -10 72 -50 90 -50 20 0 0 20 -40 40 -45 23 -50 24 -50
10z"/><path d="M5975 6350 c16 -16 33 -30 39 -30 5 0 -3 14 -19 30 -16 17 -33 30
-39 30 -5 0 3 -13 19 -30z"/><path d="M3495 6249 c-25 -30 -28 -48 -6 -34 12 7 45 65 37 65 -2 0 -16 -14
-31 -31z"/><path d="M1383 6196 c-15 -13 -24 -28 -20 -32 10 -10 36 6 55 34 19 30 0 28
-35 -2z"/><path d="M1592 6140 c-34 -21 -47 -59 -14 -41 22 12 57 50 51 56 -3 2 -19 -5
-37 -15z"/><path d="M1645 6050 c-10 -11 -15 -23 -12 -27 8 -7 47 25 47 39 0 14 -16 9
-35 -12z"/><path d="M5796 6005 c19 -30 54 -52 54 -35 0 14 -46 60 -60 60 -6 0 -3 -11 6
-25z"/><path d="M3310 5991 c-13 -25 -12 -39 4 -76 13 -29 13 -29 17 33 4 64 -2 77
-21 43z"/><path d="M1336 5910 c-20 -22 -36 -42 -36 -45 0 -21 72 32 91 66 18 35 -16 21
-55 -21z"/><path d="M1090 5899 c-7 -11 -9 -23 -6 -26 8 -9 36 17 36 33 0 21 -18 17 -30
-7z"/><path d="M5959 5843 c17 -32 79 -85 93 -81 8 3 -3 21 -33 52 -47 47 -78 62
-60 29z"/><path d="M6190 5855 c0 -15 22 -45 40 -55 33 -18 25 15 -10 40 -16 12 -30 19
-30 15z"/><path d="M1390 5815 c-13 -14 -21 -27 -18 -30 2 -3 17 9 33 25 16 17 24 30 19
30 -6 0 -21 -11 -34 -25z"/><path d="M1247 5802 c-32 -33 -36 -54 -6 -26 20 18 44 54 36 54 -2 0 -15 -13
-30 -28z"/><path d="M3884 5815 c-9 -22 5 -35 37 -35 17 0 43 -7 59 -15 23 -12 30 -13 30
-3 -1 7 -28 25 -61 40 -48 22 -61 25 -65 13z"/><path d="M3256 5473 c-3 -3 -1 -14 5 -24 8 -16 14 -17 30 -9 11 6 17 15 14 19
-6 11 -42 21 -49 14z"/><path d="M3925 5471 c-8 -15 3 -31 21 -31 9 0 14 7 12 17 -4 20 -24 28 -33 14z"/><path d="M3134 5226 c-7 -28 3 -66 17 -66 5 0 9 20 9 45 0 48 -16 61 -26 21z"/><path d="M2740 5015 c-34 -13 -33 -13 43 -14 72 -1 98 9 61 23 -24 9 -66 6
-104 -9z"/><path d="M4360 5021 c-8 -6 -12 -12 -10 -15 3 -2 57 -6 120 -7 63 -1 120 -6
125 -10 6 -3 26 -10 45 -14 31 -7 33 -6 22 8 -13 15 -90 36 -137 37 -11 1 -49
3 -85 6 -36 2 -72 0 -80 -5z"/><path d="M5953 4962 c-12 -2 -27 -10 -33 -17 -10 -12 -4 -13 37 -8 30 3 58 1
71 -6 18 -9 22 -9 22 2 0 16 -62 35 -97 29z"/><path d="M1169 4930 c-26 -21 -15 -26 26 -10 14 5 23 14 20 20 -9 15 -20 12
-46 -10z"/><path d="M3885 4830 c-8 -26 -1 -35 20 -26 18 7 17 37 -2 43 -6 2 -14 -5 -18
-17z"/><path d="M2332 4776 c-13 -24 -22 -51 -20 -60 2 -9 16 9 34 44 17 33 26 60 20
60 -6 0 -22 -20 -34 -44z"/><path d="M1490 4766 c0 -10 9 -16 21 -16 24 0 21 23 -4 28 -10 2 -17 -3 -17
-12z"/><path d="M1015 4759 c-3 -9 -7 -29 -8 -45 -3 -43 27 -39 31 5 4 36 -13 65 -23
40z"/><path d="M4900 4751 c0 -5 5 -22 11 -38 6 -15 11 -53 10 -85 -2 -64 15 -87 25
-33 7 41 0 116 -16 145 -11 20 -30 27 -30 11z"/><path d="M695 4700 c-11 -17 -45 -123 -45 -139 0 -13 2 -13 14 -1 12 13 56
125 56 143 0 11 -18 8 -25 -3z"/><path d="M6693 4655 c4 -10 12 -37 18 -61 6 -25 15 -47 20 -50 16 -9 10 53 -6
66 -8 7 -15 21 -15 31 0 10 -5 21 -12 25 -8 5 -9 2 -5 -11z"/><path d="M2711 4646 c-23 -13 -23 -14 -5 -18 23 -5 74 11 74 23 0 13 -41 10
-69 -5z"/><path d="M2825 4650 c-7 -11 42 -26 53 -16 7 8 -17 26 -35 26 -6 0 -15 -4 -18
-10z"/><path d="M4364 4645 c-18 -15 -18 -15 10 -13 16 2 31 9 34 16 5 17 -20 15 -44
-3z"/><path d="M4482 4648 c5 -15 48 -24 48 -10 0 10 -23 22 -42 22 -5 0 -8 -6 -6
-12z"/><path d="M6595 4623 c8 -45 24 -68 37 -55 9 9 -26 92 -38 92 -4 0 -3 -17 1
-37z"/><path d="M6880 4625 c1 -11 7 -33 16 -50 l14 -30 -5 39 c-5 42 -25 75 -25 41z"/><path d="M2594 4565 c-9 -14 -14 -28 -11 -32 10 -9 59 27 54 40 -7 21 -26 18
-43 -8z"/><path d="M1857 4563 c-2 -5 -7 -26 -11 -48 l-7 -40 21 33 c21 34 26 62 11 62
-6 0 -12 -3 -14 -7z"/><path d="M7126 4484 c3 -27 11 -58 17 -69 10 -19 10 -19 18 0 4 12 1 29 -7 42
-8 12 -14 31 -14 42 0 11 -5 23 -11 26 -7 5 -8 -8 -3 -41z"/><path d="M4630 4477 c-38 -48 -57 -90 -51 -115 10 -41 26 -28 33 26 4 39 14
62 33 82 15 15 23 30 18 33 -4 2 -19 -9 -33 -26z"/><path d="M2312 4480 c-6 -11 -12 -27 -12 -35 0 -8 -4 -15 -10 -15 -15 0 -11
-83 5 -104 14 -18 15 -14 15 48 0 37 5 76 11 87 14 27 7 44 -9 19z"/><path d="M342 4450 c-6 -22 -12 -50 -12 -62 0 -41 27 3 34 55 7 57 -5 62 -22
7z"/><path d="M5500 4462 c0 -10 33 -42 43 -42 12 0 7 18 -9 34 -17 17 -34 21 -34
8z"/><path d="M6655 4460 c-3 -5 -1 -18 5 -29 5 -11 10 -29 10 -40 0 -18 17 -38 25
-29 5 4 -25 108 -30 108 -2 0 -7 -4 -10 -10z"/><path d="M4907 4433 c3 -10 12 -27 20 -38 12 -19 13 -18 13 6 0 24 -16 49 -32
49 -4 0 -5 -8 -1 -17z"/><path d="M5966 4318 c-3 -13 -6 -32 -6 -43 1 -20 1 -20 15 -1 16 22 20 66 6
66 -5 0 -11 -10 -15 -22z"/><path d="M106 4323 c-9 -10 -7 -65 3 -59 11 7 20 55 11 61 -4 2 -10 2 -14 -2z"/><path d="M303 4314 c-8 -22 15 -44 26 -25 10 16 4 41 -10 41 -5 0 -12 -7 -16
-16z"/><path d="M1244 4286 c-3 -8 -1 -23 5 -35 6 -11 11 -34 11 -51 0 -18 6 -33 15
-37 9 -3 17 -4 19 -2 6 7 -29 139 -37 139 -4 0 -10 -6 -13 -14z"/><path d="M572 4274 c-14 -27 0 -51 17 -30 9 10 10 20 3 32 -9 16 -10 16 -20
-2z"/><path d="M3912 4255 c-7 -14 -12 -31 -12 -38 1 -17 40 32 40 49 0 23 -16 16
-28 -11z"/><path d="M6975 4257 c-4 -8 -1 -26 7 -39 l13 -23 3 29 c4 33 -14 59 -23 33z"/><path d="M7177 4254 c-3 -4 -3 -14 2 -23 4 -9 9 -38 10 -65 1 -50 6 -66 21
-66 17 0 21 40 6 62 -9 12 -16 39 -16 60 0 35 -8 47 -23 32z"/><path d="M6707 4226 c-3 -8 0 -22 7 -31 12 -16 13 -16 19 -1 7 18 -1 46 -13
46 -4 0 -10 -6 -13 -14z"/><path d="M82 4180 c0 -46 14 -42 20 4 2 16 -2 31 -9 33 -8 3 -12 -9 -11 -37z"/><path d="M550 4148 c0 -30 1 -31 16 -16 9 9 14 24 11 32 -11 27 -27 17 -27
-16z"/><path d="M6997 4158 c-7 -20 7 -89 18 -87 6 0 8 6 6 13 -2 6 -5 26 -7 44 -2
37 -9 49 -17 30z"/><path d="M442 4119 c0 -26 3 -37 8 -28 14 24 15 62 3 66 -8 3 -12 -10 -11 -38z"/><path d="M265 4090 c-9 -14 4 -52 16 -45 12 8 12 55 0 55 -6 0 -13 -5 -16 -10z"/><path d="M526 4036 c-8 -32 3 -64 15 -44 11 17 11 68 0 68 -5 0 -12 -11 -15
-24z"/><path d="M7014 4016 c-3 -9 -3 -28 1 -43 5 -21 8 -24 16 -12 12 19 11 56 -1
64 -6 3 -13 -1 -16 -9z"/><path d="M6750 3965 c0 -19 4 -35 9 -35 11 0 24 48 16 60 -13 21 -25 8 -25
-25z"/><path d="M7217 3984 c-12 -12 -8 -61 7 -73 11 -9 15 -5 20 21 6 32 -12 67 -27
52z"/><path d="M415 3950 c-7 -23 2 -43 16 -35 12 8 12 55 0 55 -5 0 -12 -9 -16 -20z"/><path d="M2307 3963 c-4 -3 -7 -15 -7 -26 0 -11 -7 -28 -16 -38 -19 -21 -12
-69 10 -69 10 0 15 16 18 53 2 28 8 60 12 70 8 17 -4 24 -17 10z"/><path d="M247 3936 c-7 -18 3 -56 14 -56 5 0 9 16 9 35 0 35 -13 47 -23 21z"/><path d="M7020 3910 c0 -36 16 -58 23 -31 2 11 -1 28 -9 38 -12 17 -13 16 -14
-7z"/><path d="M2704 3853 c-1 -51 0 -55 13 -37 15 21 14 86 -2 91 -7 2 -11 -19 -11
-54z"/><path d="M4496 3894 c-13 -35 -2 -99 15 -88 5 3 9 25 9 49 0 45 -13 67 -24 39z"/><path d="M4915 3882 c-7 -23 4 -54 16 -46 12 7 12 51 0 59 -5 3 -12 -3 -16
-13z"/><path d="M511 3872 c-7 -13 -9 -38 -5 -63 6 -38 8 -40 21 -24 15 21 17 73 4
94 -7 11 -11 10 -20 -7z"/><path d="M7220 3796 c0 -24 16 -43 27 -32 8 8 -6 56 -17 56 -6 0 -10 -11 -10
-24z"/><path d="M5273 3778 c-20 -10 -32 -28 -18 -28 12 0 75 29 75 34 0 9 -33 6 -57
-6z"/><path d="M7035 3759 c-10 -26 -1 -304 10 -302 14 4 19 293 6 306 -7 7 -12 5
-16 -4z"/><path d="M36 3744 c-8 -20 -8 -228 0 -248 16 -43 24 -3 24 124 0 127 -8 167
-24 124z"/><path d="M6765 3728 c-10 -25 -1 -203 10 -201 13 4 19 193 6 206 -7 7 -12 5
-16 -5z"/><path d="M6860 3640 c0 -55 4 -100 9 -100 15 0 21 29 21 100 0 71 -6 100 -21
100 -5 0 -9 -45 -9 -100z"/><path d="M500 3711 c-16 -31 -13 -174 5 -197 13 -17 14 -7 15 99 0 64 -2 117
-5 117 -2 0 -9 -9 -15 -19z"/><path d="M4451 3684 c-24 -19 -56 -37 -70 -40 -102 -23 -122 -34 -86 -48 15
-5 98 22 141 47 25 14 80 77 67 76 -4 0 -28 -16 -52 -35z"/><path d="M2720 3680 c10 -18 40 -40 55 -40 4 0 -3 14 -15 30 -25 35 -58 43
-40 10z"/><path d="M3045 3632 c-52 -16 -110 -18 -182 -7 -48 8 -60 -8 -15 -20 94 -27
214 -12 262 32 19 17 3 16 -65 -5z"/><path d="M4110 3636 c0 -14 95 -47 118 -41 36 9 20 30 -24 31 -21 0 -51 4 -66
8 -16 5 -28 5 -28 2z"/><path d="M4960 3562 c0 -17 62 -25 101 -14 34 10 33 10 -18 11 -28 1 -58 4
-67 7 -9 3 -16 1 -16 -4z"/><path d="M7220 3465 c0 -53 11 -72 24 -39 13 34 3 94 -15 94 -5 0 -9 -25 -9
-55z"/><path d="M237 3460 c-7 -27 9 -74 23 -65 14 8 12 35 -4 64 l-13 23 -6 -22z"/><path d="M508 3425 c-3 -48 2 -89 12 -99 7 -7 10 3 10 26 0 20 2 42 5 50 3 7
-1 22 -9 33 -15 19 -15 19 -18 -10z"/><path d="M43 3394 c-12 -42 -8 -64 13 -64 15 0 17 36 6 78 -6 21 -8 19 -19
-14z"/><path d="M6765 3418 c-4 -9 -5 -25 -3 -35 4 -17 5 -16 15 3 7 12 8 26 3 34 -7
12 -10 12 -15 -2z"/><path d="M3726 3388 c-9 -34 -7 -71 4 -88 16 -24 29 6 23 54 -7 50 -18 65 -27
34z"/><path d="M7016 3334 c-4 -43 -3 -71 4 -78 12 -12 12 -13 16 44 2 25 4 56 6 69
2 13 -2 26 -8 28 -7 2 -14 -21 -18 -63z"/><path d="M246 3343 c-4 -13 -3 -31 3 -40 9 -17 10 -17 17 0 3 10 2 28 -3 40
l-10 22 -7 -22z"/><path d="M4477 3353 c-15 -14 -6 -24 16 -18 35 11 44 25 16 25 -14 0 -29 -3
-32 -7z"/><path d="M4570 3325 c19 -14 35 -25 37 -25 10 0 -19 39 -33 44 -34 13 -36 5
-4 -19z"/><path d="M6750 3315 c0 -35 13 -47 23 -21 7 18 -3 56 -14 56 -5 0 -9 -16 -9
-35z"/><path d="M7222 3338 c-14 -14 -16 -54 -3 -62 16 -10 31 19 23 47 -6 22 -10 25
-20 15z"/><path d="M421 3310 c0 -14 4 -34 9 -45 7 -17 9 -16 9 10 0 17 -4 37 -9 45 -8
12 -10 10 -9 -10z"/><path d="M3460 3305 c0 -5 11 -23 25 -40 13 -16 24 -25 25 -20 0 6 -11 24 -25
40 -13 17 -24 26 -25 20z"/><path d="M6841 3263 c0 -31 2 -34 9 -18 12 28 12 55 0 55 -5 0 -10 -17 -9 -37z"/><path d="M3695 3260 c-21 -23 -12 -39 13 -24 19 12 29 44 14 44 -5 0 -17 -9
-27 -20z"/><path d="M6735 3200 c-7 -49 -2 -71 12 -57 3 4 7 22 8 40 1 17 4 38 6 46 2 7
-1 15 -7 18 -8 2 -15 -15 -19 -47z"/><path d="M527 3220 c-11 -43 15 -70 28 -29 4 13 1 27 -8 36 -12 13 -15 12 -20
-7z"/><path d="M4429 3209 c4 -13 18 -29 29 -37 36 -24 28 12 -8 38 l-30 21 9 -22z"/><path d="M4577 3196 c-18 -19 -41 -36 -52 -39 -16 -4 -15 -5 5 -6 35 -1 90 34
90 59 0 27 -6 25 -43 -14z"/><path d="M2590 3211 c0 -5 13 -20 30 -34 32 -27 80 -30 119 -6 27 18 38 44 14
33 -37 -16 -103 -16 -128 0 -28 18 -35 20 -35 7z"/><path d="M4949 3191 c-16 -16 -29 -35 -29 -41 0 -6 13 -25 29 -41 37 -36 45
-36 82 1 29 28 29 30 14 59 -13 27 -42 51 -60 51 -4 0 -20 -13 -36 -29z m76
-35 c0 -36 -27 -56 -52 -40 -40 25 -20 77 26 72 21 -2 26 -8 26 -32z"/><path d="M2160 3180 c-17 -23 -19 -34 -10 -50 16 -30 56 -53 80 -45 30 10 24
25 -10 25 -23 0 -33 6 -42 25 -10 22 -8 29 12 50 19 20 20 25 7 25 -8 0 -25
-13 -37 -30z"/><path d="M7000 3190 c-13 -24 -10 -75 5 -75 5 0 11 21 12 48 2 52 -1 57 -17
27z"/><path d="M268 3183 c-6 -22 0 -43 13 -43 11 0 12 31 0 48 -6 11 -9 10 -13 -5z"/><path d="M430 3172 c0 -19 12 -42 22 -42 14 0 5 43 -9 48 -7 2 -13 -1 -13 -6z"/><path d="M7195 3149 c-4 -12 -8 -37 -10 -58 -1 -20 -6 -44 -10 -54 -4 -11 -3
-23 3 -29 13 -13 17 -4 26 52 3 19 9 52 12 73 7 40 -10 53 -21 16z"/><path d="M5380 3120 c-17 -41 -6 -50 14 -11 18 35 19 41 7 41 -5 0 -14 -14
-21 -30z"/><path d="M82 3080 c-1 -28 3 -40 11 -37 7 2 11 17 9 33 -6 46 -20 50 -20 4z"/><path d="M550 3088 c0 -21 5 -38 10 -38 13 0 13 40 0 60 -7 11 -10 5 -10 -22z"/><path d="M6723 3080 c-12 -28 -6 -47 9 -32 5 5 8 20 6 33 l-5 24 -10 -25z"/><path d="M280 3073 c0 -30 10 -54 21 -47 13 8 11 28 -6 50 -14 19 -14 19 -15
-3z"/><path d="M102 2970 c2 -19 8 -34 13 -32 12 3 7 43 -7 57 -6 7 -8 -2 -6 -25z"/><path d="M3364 2975 c-18 -13 -17 -14 16 -15 46 0 71 15 38 23 -31 9 -32 9
-54 -8z"/><path d="M6687 2983 c-11 -20 -17 -102 -8 -107 11 -7 44 91 35 105 -6 11 -21
12 -27 2z"/><path d="M3175 2971 c-9 -16 14 -23 52 -16 27 5 33 9 22 16 -18 12 -66 12 -74
0z"/><path d="M3563 2973 c54 -2 139 -2 190 0 51 1 7 3 -98 3 -104 0 -146 -2 -92
-3z"/><path d="M3921 2971 c-11 -7 -6 -11 21 -16 43 -8 83 -3 83 10 0 13 -86 18
-104 6z"/><path d="M7163 2945 c-20 -68 -53 -205 -53 -221 0 -14 3 -14 15 -4 8 7 15 27
15 46 0 18 5 36 10 39 6 3 10 21 10 39 0 17 5 37 11 43 5 5 9 30 7 54 l-3 44
-12 -40z"/><path d="M3075 2955 c-19 -15 -18 -15 15 -13 19 2 34 8 33 13 -3 17 -27 17
-48 0z"/><path d="M4087 2964 c-14 -14 6 -24 46 -24 39 1 41 2 23 15 -20 15 -58 20 -69
9z"/><path d="M4213 2954 c-25 -11 -12 -25 20 -22 17 2 32 8 32 13 0 11 -33 17 -52
9z"/><path d="M2882 2939 c-13 -5 -28 -6 -33 -3 -6 3 -18 2 -27 -2 -11 -5 3 -10 43
-14 58 -6 91 2 79 21 -7 11 -32 11 -62 -2z"/><path d="M3573 2943 c48 -2 125 -2 170 0 45 1 6 3 -88 3 -93 0 -130 -2 -82 -3z"/><path d="M4304 2939 c-9 -15 13 -28 37 -22 23 6 25 19 3 27 -23 9 -32 7 -40
-5z"/><path d="M1878 2925 c-2 -11 2 -34 9 -52 7 -18 13 -41 13 -53 0 -11 13 -34 29
-52 24 -27 32 -31 42 -20 7 6 30 12 51 12 41 0 163 42 137 47 -9 2 -47 -3 -85
-12 -135 -31 -131 -32 -148 10 -9 21 -16 52 -16 69 0 18 -6 41 -14 51 -13 19
-14 19 -18 0z"/><path d="M5310 2895 c0 -11 -3 -30 -6 -42 -4 -13 -2 -23 4 -23 14 0 24 62 12
74 -7 7 -10 4 -10 -9z"/><path d="M4650 2890 c-13 -8 -13 -10 0 -14 27 -9 145 -24 153 -19 14 8 -5 25
-24 20 -10 -3 -35 1 -56 9 -46 16 -54 16 -73 4z"/><path d="M120 2864 c0 -14 5 -24 11 -22 6 2 10 7 10 11 -1 4 -1 14 -1 22 0 8
-4 15 -10 15 -5 0 -10 -12 -10 -26z"/><path d="M2435 2870 c-10 -16 19 -22 48 -11 15 6 27 13 27 16 0 10 -69 5 -75
-5z"/><path d="M3317 2859 c-9 -6 -15 -14 -12 -20 7 -10 97 -11 135 0 21 6 15 9 -34
19 -70 14 -66 14 -89 1z"/><path d="M3854 2856 c-18 -14 -18 -15 -1 -22 19 -7 106 2 116 12 10 10 -24 24
-60 24 -19 0 -44 -6 -55 -14z"/><path d="M4857 2842 c33 -15 81 -9 54 8 -8 4 -30 8 -50 8 l-36 0 32 -16z"/><path d="M3002 2833 c-32 -11 -41 -18 -33 -26 8 -8 20 -8 44 1 17 6 42 9 54 6
13 -4 35 -3 50 1 l28 7 -25 13 c-32 18 -64 17 -118 -2z"/><path d="M4148 2843 c-22 -6 -23 -22 -3 -29 24 -9 87 6 82 19 -4 13 -50 19
-79 10z"/><path d="M610 2824 c0 -30 20 -84 31 -84 14 0 0 72 -17 90 -12 12 -14 12 -14
-6z"/><path d="M2230 2830 c-12 -8 -12 -10 2 -15 19 -7 38 1 38 16 0 12 -21 11 -40
-1z"/><path d="M2875 2810 c-8 -12 20 -24 35 -15 5 3 10 10 10 16 0 12 -37 12 -45
-1z"/><path d="M5042 2808 c3 -7 18 -14 34 -16 16 -2 33 -8 39 -13 12 -12 55 -12 55
0 0 10 -32 23 -46 20 -5 -1 -22 3 -37 9 -36 15 -50 15 -45 0z"/><path d="M2765 2790 c-16 -7 -13 -9 17 -9 20 -1 40 4 43 9 7 12 -32 12 -60 0z"/><path d="M5279 2784 c-10 -12 -23 -14 -52 -10 -21 4 -36 3 -33 -2 9 -15 77
-22 97 -11 19 10 26 39 10 39 -5 0 -15 -7 -22 -16z"/><path d="M2463 2747 c5 -13 67 -11 81 3 5 5 -11 8 -38 8 -32 0 -46 -4 -43 -11z"/><path d="M4845 2741 c-18 -4 -25 -9 -18 -14 20 -13 153 -34 159 -25 3 4 -3 11
-13 14 -10 3 -33 12 -51 20 -18 8 -36 13 -40 13 -4 -1 -20 -4 -37 -8z"/><path d="M747 2685 c-10 -9 -15 -20 -13 -23 2 -4 13 -27 24 -52 52 -119 73
-169 88 -218 24 -77 36 -82 174 -70 83 8 168 8 306 -1 531 -32 1082 -196 1474
-436 30 -19 72 -43 92 -55 99 -54 293 -213 432 -352 99 -99 152 -146 159 -139
11 11 -21 70 -78 145 -19 25 -35 50 -35 55 0 4 -9 16 -20 26 -11 10 -20 22
-20 27 0 5 -45 60 -100 122 -91 103 -226 230 -319 298 -39 29 -270 184 -311
210 -31 19 -287 139 -395 185 -124 53 -423 152 -557 184 -95 23 -119 28 -218
48 -140 29 -311 48 -506 56 -143 7 -162 6 -177 -10z"/><path d="M6220 2690 c-124 -9 -192 -18 -415 -55 -353 -58 -903 -264 -1215
-455 -36 -22 -72 -43 -80 -46 -8 -4 -23 -14 -33 -22 -9 -8 -25 -20 -36 -26
-47 -28 -135 -94 -248 -187 -76 -63 -204 -196 -273 -283 -25 -31 -57 -71 -71
-89 -14 -17 -34 -47 -43 -64 -9 -18 -27 -49 -41 -69 -24 -36 -33 -74 -17 -74
4 0 68 61 142 135 74 75 178 167 230 206 170 126 231 169 235 169 3 0 33 18
68 39 502 307 1249 494 1807 453 121 -9 157 -9 166 1 6 7 25 53 44 102 18 50
47 123 65 164 18 41 31 80 28 88 -3 7 -21 13 -43 13 -20 0 -64 2 -96 4 -32 2
-111 0 -174 -4z"/><path d="M1940 2600 c0 -10 9 -24 19 -30 25 -13 42 -13 19 1 -10 5 -18 19 -18
29 0 11 -4 20 -10 20 -5 0 -10 -9 -10 -20z"/><path d="M680 2578 c0 -19 40 -81 47 -74 8 8 -27 86 -39 86 -4 0 -8 -6 -8 -12z"/><path d="M6846 2561 c-9 -16 -16 -40 -16 -52 0 -34 27 -6 35 37 8 47 0 53 -19
15z"/><path d="M6561 2545 c-40 -69 -64 -164 -32 -129 14 15 62 145 59 156 -2 6 -14
-6 -27 -27z"/><path d="M5220 2560 c-8 -5 -25 -10 -37 -10 -13 0 -23 -4 -23 -10 0 -5 4 -10
9 -10 13 0 81 29 81 35 0 8 -14 6 -30 -5z"/><path d="M2013 2555 c4 -5 22 -14 40 -21 17 -6 40 -15 50 -19 9 -4 17 -3 17 2
0 6 -18 15 -41 22 -23 7 -48 15 -58 18 -9 4 -13 2 -8 -2z"/><path d="M730 2460 c0 -16 23 -60 32 -60 11 0 10 27 -2 51 -11 20 -30 26 -30
9z"/><path d="M2350 2422 c0 -11 51 -35 58 -27 7 7 -29 34 -45 35 -7 0 -13 -4 -13
-8z"/><path d="M3325 2377 c-16 -12 -12 -15 39 -21 61 -7 76 -3 76 20 0 19 -89 19
-115 1z"/><path d="M3160 2368 c-24 -11 -23 -12 23 -21 36 -7 55 -6 75 3 l27 13 -30 8
c-43 10 -67 9 -95 -3z"/><path d="M3926 2373 c-17 -4 -14 -8 14 -19 33 -14 130 -10 130 6 0 17 -95 25
-144 13z"/><path d="M3050 2360 c-8 -6 -31 -8 -50 -5 -24 4 -41 1 -55 -10 -19 -15 -14
-15 63 -11 87 4 98 8 87 25 -8 14 -25 14 -45 1z"/><path d="M4137 2364 c-10 -11 3 -24 24 -24 23 0 25 15 3 24 -19 7 -19 7 -27 0z"/><path d="M4218 2353 c-10 -2 -18 -8 -18 -13 0 -14 32 -21 68 -14 33 6 34 8 17
20 -19 14 -35 16 -67 7z"/><path d="M4387 2334 c-3 -4 -4 -11 -1 -15 7 -12 54 -11 54 1 0 6 -4 10 -9 10
-5 0 -16 2 -23 5 -8 3 -17 3 -21 -1z"/><path d="M4517 2314 c-10 -11 3 -24 24 -24 23 0 25 15 3 24 -19 7 -19 7 -27 0z"/><path d="M6393 2184 c-19 -21 -27 -24 -65 -18 -33 5 -40 4 -32 -6 6 -6 30 -14
51 -17 38 -5 41 -3 57 27 20 41 17 46 -11 14z"/><path d="M1077 2191 c-38 -8 -54 -17 -45 -26 8 -9 148 10 151 20 3 12 -56 16
-106 6z"/><path d="M1296 2191 c-9 -14 2 -18 82 -26 47 -5 72 -4 72 3 0 13 -19 19 -92
27 -33 4 -59 2 -62 -4z"/><path d="M5863 2183 c-40 -16 3 -23 137 -23 136 0 177 7 134 24 -19 7 -253 7
-271 -1z"/><path d="M882 2162 c4 -19 29 -23 35 -6 2 6 -6 14 -17 17 -16 4 -20 1 -18 -11z"/><path d="M1596 2161 c14 -15 64 -25 64 -13 0 12 -24 22 -53 22 -13 0 -17 -4
-11 -9z"/><path d="M5617 2161 c-54 -9 -51 -26 3 -22 25 1 48 5 53 8 8 5 -1 24 -11 22
-4 -1 -24 -5 -45 -8z"/><path d="M5380 2120 c-8 -5 -12 -12 -8 -15 8 -8 58 5 58 16 0 12 -31 11 -50
-1z"/><path d="M6816 1995 c-16 -31 -26 -58 -23 -61 3 -3 12 7 21 23 8 16 22 35 30
42 16 14 22 51 9 51 -5 0 -21 -25 -37 -55z"/><path d="M6594 2004 c-20 -48 -11 -55 15 -13 24 38 26 49 10 49 -5 0 -17 -16
-25 -36z"/><path d="M4627 1873 c-16 -8 -26 -17 -23 -20 7 -8 66 17 66 28 0 12 -9 10 -43
-8z"/><path d="M2620 1865 c0 -2 18 -14 40 -25 22 -11 40 -16 40 -11 0 5 -14 17 -32
25 -31 16 -48 20 -48 11z"/><path d="M1495 1820 c-3 -5 0 -13 8 -16 23 -9 142 0 142 11 0 14 -142 19 -150
5z"/><path d="M1270 1810 c-8 -5 -11 -12 -8 -16 10 -9 58 4 58 16 0 13 -30 13 -50
0z"/><path d="M1830 1812 c0 -13 25 -22 58 -22 34 0 18 16 -25 25 -20 4 -33 3 -33
-3z"/><path d="M4482 1804 c-37 -26 -25 -36 18 -14 22 11 40 23 40 25 0 11 -37 4
-58 -11z"/><path d="M5390 1809 c-18 -7 -21 -12 -11 -18 13 -9 67 0 112 18 20 8 16 10
-26 10 -27 0 -61 -5 -75 -10z"/><path d="M5900 1812 c0 -13 25 -22 63 -22 40 0 24 16 -25 25 -24 5 -38 3 -38
-3z"/><path d="M5230 1790 c-21 -13 -7 -22 25 -14 20 5 23 9 13 15 -16 11 -20 11
-38 -1z"/><path d="M6117 1703 c-4 -3 -7 -14 -7 -23 0 -21 -68 -70 -98 -70 -36 0 -25
-16 19 -29 38 -11 44 -11 61 7 11 10 23 34 28 53 4 19 11 42 15 52 7 17 -5 24
-18 10z"/><path d="M1895 1650 c-9 -15 17 -24 75 -25 30 -1 63 -5 73 -10 11 -4 23 -3 29
3 12 12 6 16 -47 26 -58 12 -124 15 -130 6z"/><path d="M5288 1653 c-52 -4 -63 -19 -23 -29 31 -8 116 8 116 21 0 11 -25 14
-93 8z"/><path d="M5635 1650 c-9 -15 10 -20 92 -25 72 -5 76 -4 48 9 -37 17 -133 28
-140 16z"/><path d="M1412 1641 c-10 -6 -8 -10 9 -14 27 -7 79 2 79 14 0 11 -71 11 -88 0z"/><path d="M5075 1620 l-30 -20 33 0 c39 0 75 17 67 31 -10 15 -38 10 -70 -11z"/><path d="M1231 1614 c12 -11 26 -14 53 -9 53 10 44 25 -16 25 -48 0 -51 -1
-37 -16z"/><path d="M2100 1621 c0 -11 49 -21 68 -14 11 5 11 7 0 14 -17 11 -68 11 -68 0z"/><path d="M5880 1621 c0 -13 27 -21 45 -15 8 4 12 10 9 15 -7 12 -54 12 -54 0z"/><path d="M4961 1606 c-15 -18 1 -30 29 -21 24 8 26 21 4 29 -21 8 -20 8 -33
-8z"/><path d="M2235 1602 c6 -5 21 -13 34 -17 17 -5 22 -4 19 6 -3 8 -18 15 -34 17
-19 2 -25 0 -19 -6z"/><path d="M2490 1542 c0 -9 115 -52 140 -52 22 0 8 20 -24 34 -47 19 -116 30
-116 18z"/><path d="M3219 1462 c13 -24 88 -92 101 -92 17 0 -5 33 -50 73 -44 41 -67 49
-51 19z"/><path d="M4514 1471 c-33 -8 -146 -60 -154 -71 -3 -3 -14 -10 -24 -13 -10 -4
-16 -10 -13 -13 3 -3 34 8 69 24 34 16 82 37 106 47 24 10 45 22 48 27 3 4 4
8 2 7 -2 -1 -17 -4 -34 -8z"/><path d="M3877 1346 c-25 -26 -34 -46 -23 -46 14 0 57 51 54 62 -3 8 -14 3
-31 -16z"/><path d="M1240 1257 c0 -21 93 -104 98 -88 4 13 -50 76 -80 92 -13 7 -18 6
-18 -4z"/><path d="M3705 1101 c-8 -25 7 -47 24 -37 14 9 14 18 -3 41 -13 18 -14 18 -21
-4z"/><path d="M3421 1000 c18 -22 34 -38 37 -36 6 7 -49 76 -60 76 -5 0 6 -18 23
-40z"/><path d="M3778 988 c-56 -61 -46 -77 12 -19 28 28 50 53 50 56 0 16 -28 0 -62
-37z"/><path d="M3703 883 c-18 -53 -91 -72 -141 -37 -31 22 -28 0 4 -25 33 -26 68
-27 102 -2 31 22 69 81 52 81 -6 0 -13 -8 -17 -17z"/><path d="M2020 677 c0 -5 127 -77 135 -77 3 0 5 4 5 8 0 5 -28 22 -62 38 -35
16 -66 30 -70 32 -5 2 -8 1 -8 -1z"/><path d="M5148 654 c-35 -15 -59 -44 -36 -44 13 0 98 48 98 55 0 9 -25 4 -62
-11z"/><path d="M2570 635 c0 -15 66 -43 90 -38 15 3 31 0 34 -6 4 -6 16 -11 27 -11
10 0 27 -4 37 -9 31 -16 106 -36 125 -33 10 2 24 -1 30 -6 17 -14 71 -18 77
-7 3 6 -22 15 -55 22 -130 26 -241 56 -308 82 -30 12 -57 14 -57 6z"/><path d="M4335 550 c-10 -16 19 -22 48 -11 15 6 27 13 27 16 0 10 -69 5 -75
-5z"/><path d="M2420 493 c0 -10 75 -43 97 -43 5 0 32 -8 59 -19 62 -23 109 -38 154
-46 l35 -7 -40 22 c-22 12 -47 23 -55 24 -8 1 -25 7 -36 13 -12 7 -24 10 -26
7 -3 -2 -28 7 -55 20 -55 28 -133 45 -133 29z"/><path d="M3216 491 c-7 -10 33 -23 46 -15 5 3 6 10 3 15 -8 12 -42 12 -49 0z"/><path d="M3981 491 c-7 -5 -30 -7 -50 -4 -25 4 -41 0 -49 -10 -11 -12 -7 -16
23 -21 20 -4 51 -3 68 3 18 5 45 12 61 16 23 5 27 8 15 16 -18 11 -50 11 -68
0z"/><path d="M3440 471 c0 -12 26 -21 60 -21 34 0 60 9 60 21 0 5 -27 9 -60 9 -33
0 -60 -4 -60 -9z"/><path d="M3660 471 c0 -20 73 -28 141 -14 28 5 30 7 14 14 -28 11 -155 11
-155 0z"/><path d="M4654 449 c-17 -5 -37 -16 -44 -24 -20 -24 16 -19 75 9 39 19 45 24
25 24 -14 0 -39 -4 -56 -9z"/><path d="M4170 343 c-8 -2 -25 -9 -37 -15 -12 -6 -29 -8 -39 -4 -17 6 -44 -9
-44 -25 0 -11 44 -12 54 -2 3 4 30 8 58 10 57 3 82 18 58 33 -16 10 -27 11
-50 3z"/><path d="M2325 310 c3 -5 13 -10 21 -10 14 0 22 -3 82 -33 19 -10 38 -14 44
-11 12 8 -21 25 -89 47 -60 20 -66 20 -58 7z"/><path d="M3291 302 c-26 -18 0 -32 57 -32 31 0 92 -2 135 -6 51 -4 77 -2 77 5
0 13 -24 18 -105 25 -33 3 -80 8 -105 11 -25 3 -51 2 -59 -3z"/><path d="M3713 284 c-28 -12 -10 -25 30 -22 23 2 42 8 42 13 0 11 -52 17 -72
9z"/><path d="M2502 248 c5 -15 48 -24 48 -10 0 10 -23 22 -42 22 -5 0 -8 -6 -6
-12z"/><path d="M4620 223 c-14 -3 -29 -9 -35 -15 -13 -13 66 -1 80 13 9 9 0 10 -45
2z"/><path d="M2780 170 c0 -5 12 -12 28 -16 15 -3 37 -10 50 -15 32 -13 54 -11 50
4 -3 6 -16 12 -29 13 -13 1 -37 6 -52 13 -35 14 -47 14 -47 1z"/><path d="M4330 141 c0 -11 21 -19 38 -14 21 8 13 23 -13 23 -14 0 -25 -4 -25
-9z"/><path d="M2930 130 c0 -5 17 -12 38 -15 20 -3 56 -10 79 -16 58 -13 96 -12 91
3 -8 22 -208 49 -208 28z"/><path d="M4102 113 c-19 -7 -4 -23 23 -23 29 0 41 16 19 24 -18 7 -23 7 -42
-1z"/><path d="M4023 103 c-24 -9 -13 -24 15 -21 15 2 26 8 25 13 -2 12 -23 16 -40
8z"/><path d="M3247 93 c-33 -9 -6 -23 44 -23 51 0 66 13 27 24 -25 6 -44 6 -71 -1z"/><path d="M3913 94 c-22 -10 -14 -22 18 -29 22 -5 36 -3 47 9 14 13 14 16 2 16
-8 0 -24 2 -35 5 -11 2 -26 2 -32 -1z"/><path d="M3390 81 c0 -19 28 -31 59 -25 25 5 29 9 20 20 -12 15 -79 19 -79 5z"/><path d="M3510 65 c0 -15 47 -26 91 -20 72 10 60 25 -21 25 -38 0 -70 -2 -70
-5z"/></g><path fill="#FFFFFF" d="M874.05 483.0V238.00000000000003H930.75V436.8H1053.6V483.0Z M1081.6000000000001 483.0V294.70000000000005H1136.2V483.0ZM1108.9 268.45000000000005Q1093.8500000000001 268.45000000000005 1084.4 259.70000000000005Q1074.95 250.95000000000002 1074.95 238.00000000000003Q1074.95 225.05 1084.4 216.3Q1093.8500000000001 207.55 1108.9 207.55Q1123.95 207.55 1133.4 215.775Q1142.8500000000001 224.0 1142.8500000000001 236.95000000000002Q1142.8500000000001 250.60000000000002 1133.5750000000003 259.52500000000003Q1124.3000000000002 268.45000000000005 1108.9 268.45000000000005Z M1193.6 483.0V290.5Q1193.6 258.65 1212.5 239.575Q1231.4 220.5 1266.4 220.5Q1278.3 220.5 1289.3249999999998 222.95000000000002Q1300.35 225.40000000000003 1308.05 230.65L1293.7 270.20000000000005Q1289.15 267.05 1283.5500000000002 265.3Q1277.95 263.55 1271.65 263.55Q1259.75 263.55 1253.275 270.375Q1246.8 277.20000000000005 1246.8 290.85V308.35L1248.2 331.8V483.0ZM1164.55 340.9V298.9H1295.1V340.9Z M1413.4 485.8Q1381.2 485.8 1356.875 473.20000000000005Q1332.55 460.6 1319.25 438.725Q1305.95 416.85 1305.95 388.85Q1305.95 360.5 1319.075 338.625Q1332.2 316.75 1354.95 304.325Q1377.7 291.9 1406.4 291.9Q1434.05 291.9 1456.275 303.625Q1478.5 315.35 1491.45 337.225Q1504.4 359.1 1504.4 389.55Q1504.4 392.7 1504.0500000000002 396.725Q1503.7 400.75 1503.35 404.25H1350.4V372.4H1474.65L1453.65 381.85Q1453.65 367.15 1447.7 356.3Q1441.75 345.45000000000005 1431.25 339.32500000000005Q1420.75 333.20000000000005 1406.75 333.20000000000005Q1392.75 333.20000000000005 1382.075 339.32500000000005Q1371.4 345.45000000000005 1365.45 356.475Q1359.5 367.5 1359.5 382.55V390.95Q1359.5 406.35 1366.325 418.07500000000005Q1373.15 429.8 1385.575 435.925Q1398.0 442.05 1414.8 442.05Q1429.85 442.05 1441.225 437.5Q1452.6 432.95 1462.05 423.85L1491.1 455.35Q1478.15 470.05 1458.5500000000002 477.925Q1438.95 485.8 1413.4 485.8Z M1639.8500000000001 483.0V294.70000000000005H1694.45V483.0ZM1667.15 268.45000000000005Q1652.1000000000001 268.45000000000005 1642.65 259.70000000000005Q1633.2 250.95000000000002 1633.2 238.00000000000003Q1633.2 225.05 1642.65 216.3Q1652.1000000000001 207.55 1667.15 207.55Q1682.2 207.55 1691.65 215.775Q1701.1000000000001 224.0 1701.1000000000001 236.95000000000002Q1701.1000000000001 250.60000000000002 1691.8250000000003 259.52500000000003Q1682.5500000000002 268.45000000000005 1667.15 268.45000000000005Z M1745.2 483.0V294.70000000000005H1797.35V346.85L1787.55 331.1Q1797.7 312.20000000000005 1816.6 302.05Q1835.5 291.9 1859.65 291.9Q1882.05 291.9 1899.725 300.825Q1917.4 309.75 1927.5500000000002 328.125Q1937.7 346.5 1937.7 375.2V483.0H1883.1V383.6Q1883.1 360.85 1873.125 350.0Q1863.15 339.15 1844.95 339.15Q1832.0 339.15 1821.675 344.575Q1811.35 350.0 1805.5749999999998 361.2Q1799.8 372.4 1799.8 389.9V483.0Z M2198.7999999999997 487.2Q2146.6499999999996 487.2 2117.2499999999995 458.15Q2087.8499999999995 429.1 2087.8499999999995 375.2V238.00000000000003H2144.5499999999997V373.1Q2144.5499999999997 408.1 2158.8999999999996 423.5Q2173.2499999999995 438.9 2199.1499999999996 438.9Q2225.0499999999997 438.9 2239.3999999999996 423.5Q2253.7499999999995 408.1 2253.7499999999995 373.1V238.00000000000003H2309.7499999999995V375.2Q2309.7499999999995 429.1 2280.3499999999995 458.15Q2250.95 487.2 2198.7999999999997 487.2Z M2416.5 427.0 2413.35 361.55 2530.6 238.00000000000003H2593.6L2487.8999999999996 351.75L2456.3999999999996 385.35ZM2365.75 483.0V238.00000000000003H2422.1V483.0ZM2533.3999999999996 483.0 2446.25 376.25 2483.35 336.0 2599.5499999999997 483.0Z"/><path fill="#DE2026" d="M2723.8 483.0V238.00000000000003H2770.7L2875.0 410.9H2850.15L2952.7 238.00000000000003H2999.25L2999.95 483.0H2946.75L2946.4 319.55H2956.2L2874.3 457.1H2848.75L2765.1 319.55H2777.0V483.0Z M3143.8 485.8Q3113.7 485.8 3090.425 473.20000000000005Q3067.15 460.6 3053.675 438.725Q3040.2 416.85 3040.2 388.85Q3040.2 360.5 3053.675 338.625Q3067.15 316.75 3090.425 304.325Q3113.7 291.9 3143.8 291.9Q3173.55 291.9 3197.0 304.325Q3220.45 316.75 3233.75 338.45Q3247.05 360.15 3247.05 388.85Q3247.05 416.85 3233.75 438.725Q3220.45 460.6 3197.0 473.20000000000005Q3173.55 485.8 3143.8 485.8ZM3143.8 441.0Q3157.45 441.0 3168.3 434.7Q3179.15 428.4 3185.45 416.67499999999995Q3191.75 404.95 3191.75 388.85Q3191.75 372.4 3185.45 360.85Q3179.15 349.3 3168.3 343.0Q3157.45 336.70000000000005 3143.8 336.70000000000005Q3130.15 336.70000000000005 3119.3 343.0Q3108.45 349.3 3101.975 360.85Q3095.5 372.4 3095.5 388.85Q3095.5 404.95 3101.975 416.67499999999995Q3108.45 428.4 3119.3 434.7Q3130.15 441.0 3143.8 441.0Z M3374.45 485.8Q3344.0 485.8 3320.2 473.375Q3296.4 460.95 3282.925 438.9Q3269.45 416.85 3269.45 388.85Q3269.45 360.5 3282.925 338.625Q3296.4 316.75 3320.2 304.325Q3344.0 291.9 3374.45 291.9Q3404.2 291.9 3426.25 304.325Q3448.3 316.75 3458.8 339.85L3416.45 362.6Q3409.1 349.3 3398.075 343.0Q3387.05 336.70000000000005 3374.1 336.70000000000005Q3360.1 336.70000000000005 3348.8999999999996 343.0Q3337.7 349.3 3331.225 360.85Q3324.75 372.4 3324.75 388.85Q3324.75 405.3 3331.225 416.85Q3337.7 428.4 3348.8999999999996 434.7Q3360.1 441.0 3374.1 441.0Q3387.05 441.0 3398.075 434.875Q3409.1 428.75 3416.45 415.1L3458.8 438.2Q3448.3 460.95 3426.25 473.375Q3404.2 485.8 3374.45 485.8Z M3534.0499999999997 444.5 3535.45 378.0 3623.2999999999997 294.70000000000005H3688.3999999999996L3604.0499999999997 380.45L3575.7 403.55ZM3488.8999999999996 483.0V223.3H3543.5V483.0ZM3629.25 483.0 3565.5499999999997 403.9 3599.85 361.55 3695.3999999999996 483.0Z M3775.2000000000003 485.8Q3751.05 485.8 3728.825 480.025Q3706.6 474.25 3693.65 465.5L3711.85 426.3Q3724.8 434.35 3742.4750000000004 439.425Q3760.15 444.5 3777.3 444.5Q3796.2000000000003 444.5 3804.0750000000003 439.95Q3811.9500000000003 435.4 3811.9500000000003 427.35Q3811.9500000000003 420.7 3805.8250000000003 417.375Q3799.7000000000003 414.05 3789.55 412.3Q3779.4 410.55 3767.325 408.8Q3755.25 407.05 3743.0 404.07500000000005Q3730.75 401.1 3720.6000000000004 395.15Q3710.4500000000003 389.2 3704.3250000000003 379.04999999999995Q3698.2000000000003 368.9 3698.2000000000003 352.8Q3698.2000000000003 334.95000000000005 3708.525 321.3Q3718.85 307.65 3738.45 299.775Q3758.05 291.9 3785.35 291.9Q3804.6 291.9 3824.55 296.1Q3844.5 300.3 3857.8 308.35L3839.6 347.20000000000005Q3825.9500000000003 339.15 3812.125 336.175Q3798.3 333.20000000000005 3785.35 333.20000000000005Q3767.15 333.20000000000005 3758.75 338.1Q3750.35 343.0 3750.35 350.70000000000005Q3750.35 357.7 3756.475 361.2Q3762.6 364.7 3772.75 366.79999999999995Q3782.9 368.9 3794.9750000000004 370.475Q3807.05 372.05 3819.3 375.20000000000005Q3831.55 378.35 3841.525 384.125Q3851.5 389.9 3857.8 399.875Q3864.1 409.85 3864.1 425.95Q3864.1 443.45 3853.6 456.92499999999995Q3843.1 470.4 3823.325 478.1Q3803.55 485.8 3775.2000000000003 485.8Z"/></svg>