<svg xmlns="http://www.w3.org/2000/svg" viewBox="0 0 3940 718"><g transform="translate(0.000000,718.000000) scale(0.100000,-0.100000)" fill="#102A54" fill-rule="evenodd"><path d="M3295 7105 c-497 -57 -991 -214 -1410 -447 -341 -189 -656 -443 -922
-742 -261 -293 -470 -623 -617 -972 -264 -628 -348 -1305 -240 -1923 75 -427
227 -838 436 -1180 22 -36 59 -97 82 -134 150 -249 465 -598 751 -833 351
-287 706 -481 1180 -643 280 -95 764 -171 1096 -171 205 0 490 27 654 61 448
94 797 220 1128 408 20 11 53 30 72 41 20 11 84 52 143 92 634 424 1103 993
1365 1658 189 477 267 950 239 1437 -40 695 -278 1349 -694 1906 -219 292
-556 616 -853 819 -211 145 -470 287 -677 372 -251 103 -586 194 -863 237
-182 27 -683 36 -870 14z m710 -176 c295 -29 634 -113 925 -229 192 -77 237
-99 416 -201 336 -192 580 -385 830 -656 527 -574 823 -1239 894 -2008 28
-304 -2 -691 -76 -987 -93 -373 -217 -670 -414 -993 -98 -159 -164 -248 -331
-440 -239 -274 -580 -555 -864 -711 -11 -6 -38 -21 -60 -34 -298 -170 -656
-293 -1075 -371 -364 -68 -871 -67 -1225 2 -133 26 -206 43 -380 89 -46 12
-188 63 -305 109 -664 265 -1255 776 -1638 1417 -188 316 -347 731 -407 1064
-21 119 -27 159 -40 285 -37 356 -1 762 104 1165 34 132 114 359 172 488 52
116 107 223 187 365 82 144 224 336 388 527 187 217 537 509 768 640 20 11 53
30 73 42 136 78 377 187 561 254 117 43 402 117 547 143 100 17 323 45 450 55
74 6 385 -3 500 -15z"/><path d="M3365 6739 c-772 -71 -1484 -408 -2023 -958 -443 -451 -735 -1011
-871 -1668 -60 -291 -68 -692 -20 -983 35 -213 80 -386 147 -565 44 -117 50
-132 86 -210 18 -38 39 -86 46 -105 17 -42 66 -135 92 -172 10 -14 18 -29 18
-32 0 -13 199 -303 264 -386 150 -191 492 -510 696 -649 362 -248 743 -408
1215 -511 50 -11 135 -25 245 -42 113 -17 652 -17 775 0 346 48 652 130 902
243 24 10 64 28 91 40 355 158 689 395 987 701 102 105 187 205 266 314 99
134 219 316 219 329 0 2 14 28 31 57 57 97 203 443 243 578 29 96 74 310 97
460 19 121 23 188 23 405 1 274 -2 301 -55 566 -127 636 -426 1189 -894 1655
-149 148 -209 198 -403 339 -415 302 -872 488 -1418 576 -148 24 -585 34 -759
18z m480 -79 c650 -41 1224 -254 1741 -646 175 -132 412 -366 550 -545 73 -94
244 -340 244 -352 0 -3 17 -34 38 -68 80 -133 197 -401 255 -584 110 -350 162
-737 138 -1048 -34 -442 -137 -813 -334 -1205 -56 -111 -70 -125 -116 -118
-85 14 -471 18 -587 7 -336 -34 -654 -108 -951 -223 -126 -49 -391 -182 -478
-241 -228 -154 -366 -271 -466 -393 -66 -81 -129 -179 -129 -202 0 -7 35 19
78 58 307 285 714 486 1202 594 278 61 362 70 690 70 347 1 440 -6 440 -33 0
-20 -120 -165 -147 -179 -11 -6 -56 -4 -118 6 -66 9 -188 15 -360 15 -223 1
-279 -2 -390 -20 -626 -104 -1098 -344 -1384 -702 -74 -93 -85 -101 -131 -101
-45 0 -57 8 -104 74 -56 78 -241 259 -326 318 -141 99 -360 212 -530 273 -122
43 -445 122 -585 142 -169 24 -513 24 -660 0 -56 -9 -106 -12 -114 -7 -8 4
-46 43 -83 86 -64 75 -83 114 -55 114 6 0 53 5 102 11 50 5 173 10 275 10 315
0 603 -44 960 -150 174 -51 479 -192 630 -291 102 -68 265 -197 319 -254 66
-68 69 -38 7 54 -156 233 -427 456 -755 624 -357 182 -721 290 -1157 341 -105
13 -203 16 -399 13 l-260 -3 -35 71 c-19 39 -44 84 -56 100 -33 46 -144 312
-144 344 0 10 -13 57 -29 106 -34 108 -54 186 -80 324 -24 126 -31 183 -42
348 -20 284 12 587 98 912 30 116 107 345 140 420 61 136 119 252 166 335 321
566 782 1004 1342 1275 199 96 216 103 350 148 287 96 508 143 790 167 195 16
257 17 450 5z"/><path d="M3633 6518 c-6 -7 -13 -26 -16 -43 -3 -16 -10 -57 -17 -90 -6 -33
-15 -87 -19 -120 -13 -89 -34 -131 -106 -202 -84 -83 -115 -143 -115 -221 0
-33 7 -76 15 -96 17 -41 13 -56 -16 -56 -35 0 -109 -42 -136 -76 -14 -20 -27
-52 -30 -77 -4 -35 0 -49 26 -84 18 -25 44 -46 65 -54 20 -7 36 -18 36 -24 0
-5 -16 -22 -35 -38 -72 -57 -106 -157 -91 -260 5 -33 29 -79 87 -168 43 -67
79 -131 79 -141 0 -24 3 -25 -89 36 -132 87 -311 146 -445 146 -76 0 -195 -29
-273 -67 -72 -35 -162 -122 -193 -188 -33 -67 -39 -167 -15 -233 18 -49 18
-50 -5 -105 -23 -55 -23 -57 -6 -101 21 -54 62 -91 119 -107 77 -20 138 3 185
71 36 54 27 114 -31 192 -20 27 -20 28 -2 69 22 49 62 81 128 103 60 20 107
20 182 1 207 -54 391 -236 455 -450 18 -62 11 -88 -27 -96 -87 -17 -137 -81
-130 -164 4 -45 9 -54 52 -92 47 -40 48 -43 35 -72 -7 -17 -32 -49 -57 -72
-126 -116 -323 -126 -431 -23 -40 38 -44 46 -38 76 26 141 21 165 -48 232 -28
28 -75 62 -104 75 -51 24 -52 24 -92 6 -47 -21 -115 -92 -136 -140 -30 -74
-13 -161 42 -204 22 -17 25 -26 20 -54 -8 -41 -66 -100 -121 -123 -59 -24
-150 -22 -207 5 -55 26 -105 79 -114 119 -3 15 -7 32 -9 39 -2 7 -31 26 -63
42 -101 51 -200 180 -250 324 -33 97 -42 239 -18 301 24 64 48 81 115 83 31 1
59 2 62 2 13 2 29 54 29 93 0 67 -20 115 -66 157 -40 38 -94 61 -142 61 -12 0
-50 -9 -83 -20 -33 -11 -64 -18 -70 -15 -5 4 -18 23 -29 44 -42 83 -148 139
-237 127 -63 -8 -137 -52 -168 -97 -38 -58 -50 -125 -31 -170 24 -57 64 -98
126 -129 76 -38 100 -70 100 -129 0 -75 40 -256 80 -356 29 -75 83 -174 190
-345 239 -385 327 -571 385 -814 8 -32 19 -64 24 -69 8 -8 56 0 158 26 274 68
612 131 843 156 52 6 142 16 200 23 162 19 766 15 975 -5 169 -17 475 -58 570
-77 63 -13 197 -40 250 -51 22 -4 105 -24 184 -44 79 -20 147 -33 151 -28 4 4
13 37 20 73 21 107 84 289 133 385 79 153 108 203 285 482 148 234 209 377
242 567 5 33 10 74 10 91 0 47 33 81 115 119 57 26 79 43 101 75 56 85 40 199
-37 265 -119 101 -316 56 -385 -89 -19 -41 -22 -41 -92 -15 -90 34 -168 22
-233 -37 -68 -61 -88 -150 -51 -223 16 -33 20 -35 59 -32 51 4 78 -9 103 -51
16 -26 20 -51 20 -132 0 -55 -5 -118 -11 -140 -44 -170 -156 -329 -267 -380
-52 -25 -72 -44 -72 -72 0 -61 -62 -118 -161 -147 -107 -32 -216 20 -259 123
-12 31 -12 34 24 70 64 65 68 156 12 241 -30 46 -120 110 -154 110 -54 0 -173
-82 -203 -141 -21 -42 -22 -80 -4 -179 6 -31 2 -40 -28 -71 -56 -58 -119 -82
-212 -83 -65 0 -90 5 -135 26 -67 31 -129 84 -155 131 l-19 35 47 45 c48 47
65 93 53 141 -10 40 -55 85 -97 97 -22 7 -44 18 -50 25 -17 20 6 105 54 204
108 221 374 382 564 342 67 -14 126 -51 153 -95 27 -43 25 -58 -10 -97 -37
-41 -44 -66 -37 -126 16 -146 230 -178 305 -46 27 49 28 101 2 152 l-20 38 21
48 c44 98 8 232 -90 331 -56 57 -160 115 -247 137 -75 19 -209 20 -284 2 -109
-27 -267 -100 -341 -158 -57 -44 -76 -35 -42 20 9 15 40 59 69 97 82 111 98
149 98 230 0 87 -28 149 -90 204 -24 21 -44 41 -44 45 0 3 17 14 39 25 91 47
119 136 67 212 -23 34 -97 79 -130 79 -24 0 -28 18 -15 58 7 20 12 64 12 97
-1 82 -32 140 -126 235 -70 71 -74 79 -86 140 -7 36 -16 85 -21 110 -5 25 -14
77 -21 115 -14 78 -21 92 -36 73z m57 -3060 c34 -18 51 -35 69 -71 21 -44 22
-51 11 -93 -37 -130 -224 -149 -275 -27 -21 50 -19 95 8 134 22 33 96 79 127
79 9 0 36 -10 60 -22z m-941 -159 c35 -12 61 -53 61 -95 0 -35 -59 -94 -95
-94 -17 0 -39 12 -61 34 -52 52 -44 108 19 146 38 23 35 23 76 9z m1822 -12
c66 -44 73 -105 17 -152 -34 -29 -57 -31 -98 -10 -75 39 -82 132 -12 169 37
21 54 20 93 -7z m-2266 -142 c33 -32 31 -60 -4 -96 -35 -34 -59 -36 -95 -8
-19 15 -26 30 -26 55 0 69 76 99 125 49z m2754 -1 c12 -15 21 -33 21 -41 0
-22 -56 -73 -80 -73 -28 0 -70 43 -70 72 0 68 87 95 129 42z"/><path d="M3425 2814 c-312 -11 -719 -60 -1030 -123 -90 -18 -329 -81 -373 -98
-45 -17 -66 -41 -53 -62 4 -6 57 -29 117 -51 128 -45 296 -116 407 -171 l79
-40 156 25 c354 57 585 77 907 77 315 0 508 -16 868 -72 l188 -29 101 51 c105
53 296 131 411 169 146 48 124 84 -85 140 -177 46 -226 58 -288 69 -36 7 -85
16 -110 21 -71 14 -201 33 -370 55 -208 27 -688 47 -925 39z"/></g><g transform="translate(0.000000,718.000000) scale(0.100000,-0.100000)" fill="#DE2026" fill-rule="evenodd"><path d="M3620 6544 c0 -9 7 -14 17 -12 25 5 28 28 4 28 -12 0 -21 -6 -21 -16z"/><path d="M4975 3144 c-10 -11 -15 -29 -13 -53 2 -29 8 -37 26 -39 13 -2 30 2
38 8 20 17 18 64 -4 83 -23 21 -27 21 -47 1z"/><path d="M660 2621 c0 -10 20 -68 44 -127 93 -228 112 -259 155 -249 61 13
324 22 441 14 130 -9 263 -24 340 -39 25 -4 79 -14 120 -20 162 -26 445 -108
652 -191 114 -45 367 -171 468 -232 204 -124 460 -340 572 -484 40 -53 68 -68
68 -37 0 35 -103 191 -232 349 -97 121 -274 281 -443 402 -90 65 -316 196
-414 240 -42 19 -101 46 -131 60 -105 49 -265 110 -370 142 -58 18 -116 36
-130 41 -42 16 -219 62 -305 79 -245 51 -435 71 -667 71 -158 0 -168 -1 -168
-19z"/><path d="M6155 2629 c-184 -23 -347 -49 -430 -69 -22 -5 -60 -13 -85 -19 -25
-5 -90 -24 -145 -41 -55 -18 -113 -36 -130 -40 -291 -81 -744 -300 -971 -470
-237 -178 -402 -345 -541 -546 -90 -132 -110 -171 -95 -186 8 -8 20 0 44 28
69 81 186 198 263 264 266 225 701 448 1118 574 221 66 505 116 787 137 130 9
197 9 320 0 85 -7 165 -13 178 -14 15 -1 28 7 37 23 44 76 150 348 140 358
-10 10 -409 12 -490 1z"/></g><path fill="#102A54" d="M874.05 483.0V238.00000000000003H930.75V436.8H1053.6V483.0Z M1081.6000000000001 483.0V294.70000000000005H1136.2V483.0ZM1108.9 268.45000000000005Q1093.8500000000001 268.45000000000005 1084.4 259.70000000000005Q1074.95 250.95000000000002 1074.95 238.00000000000003Q1074.95 225.05 1084.4 216.3Q1093.8500000000001 207.55 1108.9 207.55Q1123.95 207.55 1133.4 215.775Q1142.8500000000001 224.0 1142.8500000000001 236.95000000000002Q1142.8500000000001 250.60000000000002 1133.5750000000003 259.52500000000003Q1124.3000000000002 268.45000000000005 1108.9 268.45000000000005Z M1193.6 483.0V290.5Q1193.6 258.65 1212.5 239.575Q1231.4 220.5 1266.4 220.5Q1278.3 220.5 1289.3249999999998 222.95000000000002Q1300.35 225.40000000000003 1308.05 230.65L1293.7 270.20000000000005Q1289.15 267.05 1283.5500000000002 265.3Q1277.95 263.55 1271.65 263.55Q1259.75 263.55 1253.275 270.375Q1246.8 277.20000000000005 1246.8 290.85V308.35L1248.2 331.8V483.0ZM1164.55 340.9V298.9H1295.1V340.9Z M1413.4 485.8Q1381.2 485.8 1356.875 473.20000000000005Q1332.55 460.6 1319.25 438.725Q1305.95 416.85 1305.95 388.85Q1305.95 360.5 1319.075 338.625Q1332.2 316.75 1354.95 304.325Q1377.7 291.9 1406.4 291.9Q1434.05 291.9 1456.275 303.625Q1478.5 315.35 1491.45 337.225Q1504.4 359.1 1504.4 389.55Q1504.4 392.7 1504.0500000000002 396.725Q1503.7 400.75 1503.35 404.25H1350.4V372.4H1474.65L1453.65 381.85Q1453.65 367.15 1447.7 356.3Q1441.75 345.45000000000005 1431.25 339.32500000000005Q1420.75 333.20000000000005 1406.75 333.20000000000005Q1392.75 333.20000000000005 1382.075 339.32500000000005Q1371.4 345.45000000000005 1365.45 356.475Q1359.5 367.5 1359.5 382.55V390.95Q1359.5 406.35 1366.325 418.07500000000005Q1373.15 429.8 1385.575 435.925Q1398.0 442.05 1414.8 442.05Q1429.85 442.05 1441.225 437.5Q1452.6 432.95 1462.05 423.85L1491.1 455.35Q1478.15 470.05 1458.5500000000002 477.925Q1438.95 485.8 1413.4 485.8Z M1639.8500000000001 483.0V294.70000000000005H1694.45V483.0ZM1667.15 268.45000000000005Q1652.1000000000001 268.45000000000005 1642.65 259.70000000000005Q1633.2 250.95000000000002 1633.2 238.00000000000003Q1633.2 225.05 1642.65 216.3Q1652.1000000000001 207.55 1667.15 207.55Q1682.2 207.55 1691.65 215.775Q1701.1000000000001 224.0 1701.1000000000001 236.95000000000002Q1701.1000000000001 250.60000000000002 1691.8250000000003 259.52500000000003Q1682.5500000000002 268.45000000000005 1667.15 268.45000000000005Z M1745.2 483.0V294.70000000000005H1797.35V346.85L1787.55 331.1Q1797.7 312.20000000000005 1816.6 302.05Q1835.5 291.9 1859.65 291.9Q1882.05 291.9 1899.725 300.825Q1917.4 309.75 1927.5500000000002 328.125Q1937.7 346.5 1937.7 375.2V483.0H1883.1V383.6Q1883.1 360.85 1873.125 350.0Q1863.15 339.15 1844.95 339.15Q1832.0 339.15 1821.675 344.575Q1811.35 350.0 1805.5749999999998 361.2Q1799.8 372.4 1799.8 389.9V483.0Z M2198.7999999999997 487.2Q2146.6499999999996 487.2 2117.2499999999995 458.15Q2087.8499999999995 429.1 2087.8499999999995 375.2V238.00000000000003H2144.5499999999997V373.1Q2144.5499999999997 408.1 2158.8999999999996 423.5Q2173.2499999999995 438.9 2199.1499999999996 438.9Q2225.0499999999997 438.9 2239.3999999999996 423.5Q2253.7499999999995 408.1 2253.7499999999995 373.1V238.00000000000003H2309.7499999999995V375.2Q2309.7499999999995 429.1 2280.3499999999995 458.15Q2250.95 487.2 2198.7999999999997 487.2Z M2416.5 427.0 2413.35 361.55 2530.6 238.00000000000003H2593.6L2487.8999999999996 351.75L2456.3999999999996 385.35ZM2365.75 483.0V238.00000000000003H2422.1V483.0ZM2533.3999999999996 483.0 2446.25 376.25 2483.35 336.0 2599.5499999999997 483.0Z"/><path fill="#102A54" d="M2723.8 483.0V238.00000000000003H2770.7L2875.0 410.9H2850.15L2952.7 238.00000000000003H2999.25L2999.95 483.0H2946.75L2946.4 319.55H2956.2L2874.3 457.1H2848.75L2765.1 319.55H2777.0V483.0Z M3143.8 485.8Q3113.7 485.8 3090.425 473.20000000000005Q3067.15 460.6 3053.675 438.725Q3040.2 416.85 3040.2 388.85Q3040.2 360.5 3053.675 338.625Q3067.15 316.75 3090.425 304.325Q3113.7 291.9 3143.8 291.9Q3173.55 291.9 3197.0 304.325Q3220.45 316.75 3233.75 338.45Q3247.05 360.15 3247.05 388.85Q3247.05 416.85 3233.75 438.725Q3220.45 460.6 3197.0 473.20000000000005Q3173.55 485.8 3143.8 485.8ZM3143.8 441.0Q3157.45 441.0 3168.3 434.7Q3179.15 428.4 3185.45 416.67499999999995Q3191.75 404.95 3191.75 388.85Q3191.75 372.4 3185.45 360.85Q3179.15 349.3 3168.3 343.0Q3157.45 336.70000000000005 3143.8 336.70000000000005Q3130.15 336.70000000000005 3119.3 343.0Q3108.45 349.3 3101.975 360.85Q3095.5 372.4 3095.5 388.85Q3095.5 404.95 3101.975 416.67499999999995Q3108.45 428.4 3119.3 434.7Q3130.15 441.0 3143.8 441.0Z M3374.45 485.8Q3344.0 485.8 3320.2 473.375Q3296.4 460.95 3282.925 438.9Q3269.45 416.85 3269.45 388.85Q3269.45 360.5 3282.925 338.625Q3296.4 316.75 3320.2 304.325Q3344.0 291.9 3374.45 291.9Q3404.2 291.9 3426.25 304.325Q3448.3 316.75 3458.8 339.85L3416.45 362.6Q3409.1 349.3 3398.075 343.0Q3387.05 336.70000000000005 3374.1 336.70000000000005Q3360.1 336.70000000000005 3348.8999999999996 343.0Q3337.7 349.3 3331.225 360.85Q3324.75 372.4 3324.75 388.85Q3324.75 405.3 3331.225 416.85Q3337.7 428.4 3348.8999999999996 434.7Q3360.1 441.0 3374.1 441.0Q3387.05 441.0 3398.075 434.875Q3409.1 428.75 3416.45 415.1L3458.8 438.2Q3448.3 460.95 3426.25 473.375Q3404.2 485.8 3374.45 485.8Z M3534.0499999999997 444.5 3535.45 378.0 3623.2999999999997 294.70000000000005H3688.3999999999996L3604.0499999999997 380.45L3575.7 403.55ZM3488.8999999999996 483.0V223.3H3543.5V483.0ZM3629.25 483.0 3565.5499999999997 403.9 3599.85 361.55 3695.3999999999996 483.0Z M3775.2000000000003 485.8Q3751.05 485.8 3728.825 480.025Q3706.6 474.25 3693.65 465.5L3711.85 426.3Q3724.8 434.35 3742.4750000000004 439.425Q3760.15 444.5 3777.3 444.5Q3796.2000000000003 444.5 3804.0750000000003 439.95Q3811.9500000000003 435.4 3811.9500000000003 427.35Q3811.9500000000003 420.7 3805.8250000000003 417.375Q3799.7000000000003 414.05 3789.55 412.3Q3779.4 410.55 3767.325 408.8Q3755.25 407.05 3743.0 404.07500000000005Q3730.75 401.1 3720.6000000000004 395.15Q3710.4500000000003 389.2 3704.3250000000003 379.04999999999995Q3698.2000000000003 368.9 3698.2000000000003 352.8Q3698.2000000000003 334.95000000000005 3708.525 321.3Q3718.85 307.65 3738.45 299.775Q3758.05 291.9 3785.35 291.9Q3804.6 291.9 3824.55 296.1Q3844.5 300.3 3857.8 308.35L3839.6 347.20000000000005Q3825.9500000000003 339.15 3812.125 336.175Q3798.3 333.20000000000005 3785.35 333.20000000000005Q3767.15 333.20000000000005 3758.75 338.1Q3750.35 343.0 3750.35 350.70000000000005Q3750.35 357.7 3756.475 361.2Q3762.6 364.7 3772.75 366.79999999999995Q3782.9 368.9 3794.9750000000004 370.475Q3807.05 372.05 3819.3 375.20000000000005Q3831.55 378.35 3841.525 384.125Q3851.5 389.9 3857.8 399.875Q3864.1 409.85 3864.1 425.95Q3864.1 443.45 3853.6 456.92499999999995Q3843.1 470.4 3823.325 478.1Q3803.55 485.8 3775.2000000000003 485.8Z"/></svg>